<svg width="24" height="24" viewBox="0 0 24 24" fill="none" xmlns="http://www.w3.org/2000/svg">
<path d="M12.8061 19.7189L14.8554 21.7903L12.8061 19.7189ZM12.3138 20.9229C12.4723 20.9229 12.6244 20.9903 12.7365 21.1102C12.8486 21.2302 12.9116 21.3929 12.9116 21.5625C12.9116 21.7321 12.8486 21.8948 12.7365 22.0148C12.6244 22.1347 12.4723 22.2021 12.3138 22.2021H1.38513C1.01802 22.2001 0.666681 22.0422 0.408309 21.7632C0.148409 21.4863 0.00159949 21.1105 0 20.7181V2.2236C0.000622807 2.02906 0.0371905 1.83658 0.107599 1.65721C0.178008 1.47785 0.280869 1.31516 0.410263 1.17848C0.667638 0.898616 1.01818 0.739275 1.38513 0.735352H17.8953C18.2621 0.737063 18.6133 0.894138 18.8721 1.17221L18.9131 1.22029C19.1477 1.49434 19.2787 1.85197 19.2804 2.2236V10.9775C19.2804 11.1472 19.2174 11.3099 19.1053 11.4298C18.9932 11.5498 18.8412 11.6171 18.6826 11.6171C18.5241 11.6171 18.372 11.5498 18.2599 11.4298C18.1478 11.3099 18.0848 11.1472 18.0848 10.9775V2.2236C18.0845 2.17645 18.0694 2.13078 18.0418 2.09401L18.0262 2.07729C17.9901 2.0379 17.941 2.01536 17.8894 2.01458H1.38513C1.3336 2.01536 1.28444 2.0379 1.24837 2.07729C1.21228 2.11622 1.19193 2.16877 1.19172 2.2236V20.7139C1.19245 20.769 1.21352 20.8216 1.25033 20.8602C1.28671 20.8988 1.33583 20.9206 1.38708 20.9208L12.3138 20.9229ZM18.6396 14.8278C19.3312 14.0544 19.8118 13.3876 20.8863 13.2559C22.8868 13.0113 24.7252 15.204 23.7132 17.3611C23.426 17.9757 22.8399 18.7072 22.1933 19.4242C21.4841 20.2122 20.7027 20.9835 20.1439 21.5688L18.6416 23.1636L17.3991 21.8844C15.9045 20.346 13.4742 18.4062 13.3863 16.0066C13.3316 14.3345 14.5722 13.2475 15.9983 13.2663C17.274 13.2852 17.8132 13.9624 18.6396 14.8278ZM4.63988 14.8278C4.78009 14.8278 4.91712 14.8724 5.03359 14.9559C5.15005 15.0394 5.24069 15.1581 5.29398 15.2968C5.34727 15.4356 5.36081 15.5881 5.33288 15.7351C5.30495 15.8821 5.23682 16.0169 5.13713 16.1224C5.03744 16.2279 4.9107 16.2993 4.773 16.3276C4.6353 16.3558 4.49286 16.3396 4.36378 16.2811C4.2347 16.2225 4.1248 16.1242 4.04803 15.9987C3.97127 15.8732 3.93112 15.7261 3.93266 15.5761C3.93266 15.4767 3.95096 15.3783 3.9865 15.2865C4.02204 15.1947 4.07413 15.1113 4.1398 15.041C4.20547 14.9708 4.28344 14.915 4.36924 14.877C4.45504 14.839 4.54701 14.8194 4.63988 14.8194V14.8278ZM7.51368 16.3474C7.37283 16.3188 7.24572 16.2386 7.15427 16.1205C7.06282 16.0024 7.01278 15.8538 7.01278 15.7004C7.01278 15.5471 7.06282 15.3985 7.15427 15.2804C7.24572 15.1623 7.37283 15.082 7.51368 15.0535H9.81896C9.95981 15.082 10.0869 15.1623 10.1784 15.2804C10.2698 15.3985 10.3199 15.5471 10.3199 15.7004C10.3199 15.8538 10.2698 16.0024 10.1784 16.1205C10.0869 16.2386 9.95981 16.3188 9.81896 16.3474H7.51368ZM4.63988 10.3505C4.77984 10.3505 4.91665 10.3949 5.03299 10.4781C5.14933 10.5614 5.23998 10.6797 5.29345 10.818C5.34692 10.9564 5.36081 11.1087 5.33336 11.2555C5.30591 11.4024 5.23836 11.5372 5.13926 11.6429C5.04016 11.7486 4.91396 11.8205 4.77665 11.8495C4.63934 11.8785 4.49708 11.8632 4.36788 11.8056C4.23869 11.748 4.12838 11.6507 4.0509 11.526C3.97343 11.4013 3.93228 11.2548 3.93266 11.105C3.93318 10.9047 4.00792 10.7128 4.14049 10.5713C4.27307 10.4299 4.45265 10.3505 4.63988 10.3505ZM7.51368 11.8011C7.37295 11.7751 7.24532 11.6968 7.15332 11.58C7.06132 11.4632 7.01087 11.3153 7.01087 11.1625C7.01087 11.0097 7.06132 10.8619 7.15332 10.745C7.24532 10.6282 7.37295 10.5499 7.51368 10.5239H12.22C12.3607 10.5499 12.4883 10.6282 12.5803 10.745C12.6723 10.8619 12.7228 11.0097 12.7228 11.1625C12.7228 11.3153 12.6723 11.4632 12.5803 11.58C12.4883 11.6968 12.3607 11.7751 12.22 11.8011H7.51368ZM4.63988 5.87734C4.77975 5.87734 4.91649 5.92172 5.03279 6.00487C5.14909 6.08801 5.23973 6.20618 5.29326 6.34445C5.34679 6.48271 5.3608 6.63485 5.33351 6.78163C5.30622 6.92841 5.23886 7.06323 5.13996 7.16905C5.04105 7.27488 4.91504 7.34694 4.77785 7.37614C4.64067 7.40533 4.49847 7.39035 4.36924 7.33308C4.24001 7.27581 4.12956 7.17883 4.05185 7.05439C3.97414 6.92996 3.93266 6.78367 3.93266 6.63401C3.93266 6.53464 3.95096 6.43625 3.9865 6.34445C4.02204 6.25264 4.07413 6.16923 4.1398 6.09897C4.20547 6.0287 4.28344 5.97297 4.36924 5.93494C4.45504 5.89692 4.54701 5.87734 4.63988 5.87734ZM7.51368 7.26735C7.36848 7.253 7.2344 7.17806 7.14044 7.05876C7.04648 6.93945 7.00019 6.78537 7.01159 6.62983C7.00017 6.47407 7.0464 6.31974 7.14031 6.2001C7.23423 6.08046 7.36831 6.00509 7.51368 5.99022H14.1345C14.2817 6.00249 14.4182 6.07676 14.5142 6.19669C14.6102 6.31662 14.6577 6.47241 14.6464 6.62983C14.6578 6.78537 14.6115 6.93945 14.5175 7.05876C14.4236 7.17806 14.2895 7.253 14.1443 7.26735H7.51368Z" fill="#D8D8D8"/>
</svg>
