<svg width="21" height="24" viewBox="0 0 21 24" fill="none" xmlns="http://www.w3.org/2000/svg">
<path d="M18.8125 4.5H16.5625V1.5C16.5625 0.671625 15.8909 0 15.0625 0H6.0625C5.23413 0 4.5625 0.671625 4.5625 1.5V4.5H2.3125C1.48412 4.5 0.8125 5.17163 0.8125 6V7.5H20.3125V6C20.3125 5.17163 19.6409 4.5 18.8125 4.5ZM7.5625 4.5V3H13.5625V4.5H7.5625Z" fill="#F20000"/>
<path d="M2.3125 22.5002C2.3125 23.3286 2.98394 24 3.81231 24H17.3129C18.1411 24 18.8125 23.3286 18.8125 22.5004V22.5002V9H2.3125V22.5002ZM13.5625 12.75C13.5625 12.3358 13.8983 12 14.3125 12C14.7267 12 15.0625 12.3358 15.0625 12.75V20.25C15.0625 20.6642 14.7267 21 14.3125 21C13.8983 21 13.5625 20.6642 13.5625 20.25V12.75ZM9.8125 12.75C9.8125 12.3358 10.1483 12 10.5625 12C10.9767 12 11.3125 12.3358 11.3125 12.75V20.25C11.3125 20.6642 10.9767 21 10.5625 21C10.1483 21 9.8125 20.6642 9.8125 20.25V12.75ZM6.0625 12.75C6.0625 12.3358 6.39831 12 6.8125 12C7.22669 12 7.5625 12.3358 7.5625 12.75V20.25C7.5625 20.6642 7.22669 21 6.8125 21C6.39831 21 6.0625 20.6642 6.0625 20.25V12.75Z" fill="#F20000"/>
</svg>
