<svg width="35" height="33" viewBox="0 0 35 33" fill="none" xmlns="http://www.w3.org/2000/svg">
<path d="M31.44 3.87541C29.6263 2.06118 27.2217 0.958138 24.6634 0.766898C22.1052 0.575659 19.5633 1.30892 17.5 2.83333C15.3264 1.21663 12.621 0.483537 9.92853 0.781686C7.23608 1.07983 4.75659 2.38708 2.98937 4.44016C1.22216 6.49325 0.298491 9.13968 0.404371 11.8465C0.510252 14.5534 1.63782 17.1196 3.56 19.0283L16.2871 31.7554C16.4459 31.9155 16.6348 32.0426 16.843 32.1294C17.0512 32.2161 17.2745 32.2607 17.5 32.2607C17.7255 32.2607 17.9488 32.2161 18.157 32.1294C18.3652 32.0426 18.5541 31.9155 18.7129 31.7554L31.44 19.0283C32.4354 18.0336 33.225 16.8525 33.7637 15.5525C34.3024 14.2525 34.5797 12.8591 34.5797 11.4519C34.5797 10.0447 34.3024 8.65125 33.7637 7.35125C33.225 6.05124 32.4354 4.87014 31.44 3.87541ZM29.0313 16.6196L17.5 28.1337L5.96875 16.6196C4.95259 15.5992 4.26038 14.3015 3.97894 12.8892C3.6975 11.4769 3.83937 10.0129 4.38675 8.68094C4.93414 7.34897 5.86266 6.2083 7.05584 5.40202C8.24903 4.59574 9.65373 4.15975 11.0938 4.14875C13.0175 4.15346 14.8608 4.92149 16.2188 6.28416C16.3776 6.44428 16.5665 6.57137 16.7747 6.6581C16.9829 6.74483 17.2061 6.78949 17.4317 6.78949C17.6572 6.78949 17.8805 6.74483 18.0887 6.6581C18.2968 6.57137 18.4858 6.44428 18.6446 6.28416C20.0426 5.07275 21.8486 4.4377 23.6971 4.50754C25.5456 4.57738 27.2985 5.34688 28.6011 6.66032C29.9036 7.97376 30.6586 9.73301 30.7131 11.582C30.7676 13.431 30.1176 15.2317 28.8946 16.6196H29.0313Z" fill="black"/>
</svg>
