<svg width="36" height="34" viewBox="0 0 36 34" fill="none" xmlns="http://www.w3.org/2000/svg">
<path d="M10.0333 11.3333V8.5C10.0333 6.62138 10.8016 4.81971 12.169 3.49133C13.5365 2.16295 15.3911 1.41667 17.325 1.41667C19.2589 1.41667 21.1135 2.16295 22.481 3.49133C23.8484 4.81971 24.6167 6.62138 24.6167 8.5V11.3333H28.9917C29.3784 11.3333 29.7494 11.4826 30.0229 11.7483C30.2964 12.0139 30.45 12.3743 30.45 12.75V29.75C30.45 30.1257 30.2964 30.4861 30.0229 30.7517C29.7494 31.0174 29.3784 31.1667 28.9917 31.1667H5.65833C5.27156 31.1667 4.90062 31.0174 4.62713 30.7517C4.35364 30.4861 4.2 30.1257 4.2 29.75V12.75C4.2 12.3743 4.35364 12.0139 4.62713 11.7483C4.90062 11.4826 5.27156 11.3333 5.65833 11.3333H10.0333ZM10.0333 14.1667H7.11666V28.3333H27.5333V14.1667H24.6167V17H21.7V14.1667H12.95V17H10.0333V14.1667ZM12.95 11.3333H21.7V8.5C21.7 7.37283 21.2391 6.29183 20.4186 5.4948C19.5981 4.69777 18.4853 4.25 17.325 4.25C16.1647 4.25 15.0519 4.69777 14.2314 5.4948C13.4109 6.29183 12.95 7.37283 12.95 8.5V11.3333Z" fill="#131212"/>
<ellipse cx="28.5" cy="8.45802" rx="7.5" ry="7.54198" fill="#FF0000"/>
<path d="M26.6582 5.79347V4.24547H29.5502V12.9935H27.8222V5.79347H26.6582Z" fill="white"/>
</svg>
