<svg width="23" height="24" viewBox="0 0 23 24" fill="none" xmlns="http://www.w3.org/2000/svg">
<path d="M0.760055 2.3841C0.556617 2.37937 0.363032 2.28935 0.220907 2.13337C0.0787822 1.97739 -0.000535446 1.7679 2.72078e-06 1.54995C0.00337361 1.33517 0.0845325 1.13019 0.226346 0.978292C0.368159 0.826394 0.559529 0.739465 0.760055 0.735854H1.88328C2.53635 0.72453 3.17986 0.904821 3.7441 1.2572C4.7625 1.94898 4.94408 2.93753 5.2043 4.0524H22.2399C22.4414 4.05293 22.6344 4.13887 22.7768 4.29143C22.9193 4.44399 22.9995 4.65075 23 4.8665C22.9969 4.95149 22.9837 5.03572 22.9607 5.11714L20.9782 13.6912C20.9405 13.8725 20.8453 14.0342 20.7087 14.1487C20.5721 14.2631 20.4027 14.3233 20.2294 14.3188H7.77088C8.0442 15.4036 8.31752 15.9871 8.68631 16.2578C9.1356 16.5767 9.92186 16.5927 11.2192 16.5767H20.0422C20.2437 16.5767 20.4371 16.6624 20.5796 16.8151C20.7221 16.9678 20.8022 17.1748 20.8022 17.3908C20.8022 17.6067 20.7221 17.8137 20.5796 17.9664C20.4371 18.1191 20.2437 18.2049 20.0422 18.2049H11.2323C9.61672 18.2249 8.62266 18.1828 7.82517 17.6214C7.02768 17.0599 6.57838 16.0353 6.14968 14.2126L3.54566 3.63532C3.54566 3.61527 3.54566 3.61527 3.52507 3.59322C3.49089 3.40305 3.42162 3.2221 3.32132 3.06096C3.22103 2.89982 3.09173 2.76174 2.94099 2.6548C2.61537 2.45914 2.245 2.36535 1.87205 2.3841H0.760055ZM15.7964 7.39702C15.8216 7.26649 15.888 7.14927 15.9846 7.0651C16.0811 6.98094 16.2017 6.93499 16.3261 6.93499C16.4506 6.93499 16.5712 6.98094 16.6677 7.0651C16.7642 7.14927 16.8307 7.26649 16.8559 7.39702V10.5471C16.8307 10.6777 16.7642 10.7949 16.6677 10.879C16.5712 10.9632 16.4506 11.0092 16.3261 11.0092C16.2017 11.0092 16.0811 10.9632 15.9846 10.879C15.888 10.7949 15.8216 10.6777 15.7964 10.5471V7.40103V7.39702ZM12.6232 7.39702C12.6476 7.26541 12.7138 7.14691 12.8105 7.06175C12.9073 6.97659 13.0287 6.93004 13.154 6.93004C13.2792 6.93004 13.4006 6.97659 13.4974 7.06175C13.5942 7.14691 13.6604 7.26541 13.6847 7.39702V10.5471C13.6604 10.6787 13.5942 10.7972 13.4974 10.8824C13.4006 10.9676 13.2792 11.0141 13.154 11.0141C13.0287 11.0141 12.9073 10.9676 12.8105 10.8824C12.7138 10.7972 12.6476 10.6787 12.6232 10.5471V7.40103V7.39702ZM9.45198 7.39702C9.47721 7.26649 9.54367 7.14927 9.64018 7.0651C9.73668 6.98094 9.85732 6.93499 9.98177 6.93499C10.1062 6.93499 10.2269 6.98094 10.3234 7.0651C10.4199 7.14927 10.4863 7.26649 10.5116 7.39702V10.5471C10.4863 10.6777 10.4199 10.7949 10.3234 10.879C10.2269 10.9632 10.1062 11.0092 9.98177 11.0092C9.85732 11.0092 9.73668 10.9632 9.64018 10.879C9.54367 10.7949 9.47721 10.6777 9.45198 10.5471V7.40103V7.39702ZM17.2622 5.67658H5.62925L7.36277 12.6666H19.6565L21.274 5.67658H17.2622ZM17.7639 19.1533C18.1341 19.1533 18.4961 19.2709 18.8039 19.4912C19.1118 19.7116 19.3517 20.0247 19.4934 20.3911C19.6351 20.7575 19.6722 21.1607 19.6 21.5497C19.5277 21.9386 19.3494 22.2959 19.0876 22.5763C18.8258 22.8568 18.4922 23.0477 18.1291 23.1251C17.766 23.2025 17.3895 23.1628 17.0475 23.011C16.7054 22.8592 16.413 22.6022 16.2073 22.2725C16.0016 21.9427 15.8918 21.5551 15.8918 21.1585C15.8918 20.6267 16.0891 20.1166 16.4401 19.7406C16.7912 19.3646 17.2674 19.1533 17.7639 19.1533ZM9.5643 19.1533C9.93456 19.1533 10.2965 19.2709 10.6044 19.4912C10.9122 19.7116 11.1522 20.0247 11.2939 20.3911C11.4355 20.7575 11.4726 21.1607 11.4004 21.5497C11.3281 21.9386 11.1499 22.2959 10.888 22.5763C10.6262 22.8568 10.2927 23.0477 9.92952 23.1251C9.56638 23.2025 9.18997 23.1628 8.8479 23.011C8.50583 22.8592 8.21345 22.6022 8.00775 22.2725C7.80205 21.9427 7.69225 21.5551 7.69225 21.1585C7.69225 20.6267 7.88949 20.1166 8.24056 19.7406C8.59164 19.3646 9.0678 19.1533 9.5643 19.1533Z" fill="#D8D8D8"/>
</svg>
