<svg width="36" height="32" viewBox="0 0 36 32" fill="none" xmlns="http://www.w3.org/2000/svg">
<path d="M32.0159 3.60852C30.2022 1.79428 27.7976 0.69124 25.2393 0.5C22.6811 0.30876 20.1392 1.04202 18.0759 2.56643C15.9023 0.949729 13.1969 0.216639 10.5044 0.514788C7.81199 0.812937 5.3325 2.12018 3.56529 4.17326C1.79807 6.22635 0.874402 8.87278 0.980283 11.5796C1.08616 14.2865 2.21373 16.8527 4.13591 18.7614L16.863 31.4885C17.0218 31.6486 17.2108 31.7757 17.4189 31.8625C17.6271 31.9492 17.8504 31.9938 18.0759 31.9938C18.3014 31.9938 18.5247 31.9492 18.7329 31.8625C18.9411 31.7757 19.13 31.6486 19.2888 31.4885L32.0159 18.7614C33.0113 17.7667 33.8009 16.5856 34.3396 15.2856C34.8783 13.9856 35.1556 12.5922 35.1556 11.185C35.1556 9.77777 34.8783 8.38435 34.3396 7.08435C33.8009 5.78435 33.0113 4.60324 32.0159 3.60852Z" fill="black"/>
</svg>
