<svg width="16" height="16" viewBox="0 0 16 16" fill="none" xmlns="http://www.w3.org/2000/svg">
<path d="M15.35 0.661663C14.895 0.206663 14.16 0.206663 13.705 0.661663L7.99997 6.355L2.29497 0.649996C1.83997 0.194996 1.10497 0.194996 0.649966 0.649996C0.194966 1.105 0.194966 1.84 0.649966 2.295L6.35497 8L0.649966 13.705C0.194966 14.16 0.194966 14.895 0.649966 15.35C1.10497 15.805 1.83997 15.805 2.29497 15.35L7.99997 9.645L13.705 15.35C14.16 15.805 14.895 15.805 15.35 15.35C15.805 14.895 15.805 14.16 15.35 13.705L9.64497 8L15.35 2.295C15.7933 1.85166 15.7933 1.105 15.35 0.661663Z" fill="black"/>
</svg>
