<svg width="22" height="22" viewBox="0 0 22 22" fill="none" xmlns="http://www.w3.org/2000/svg">
<path fill-rule="evenodd" clip-rule="evenodd" d="M12.3831 16.2269C12.4451 16.2269 12.5056 16.2472 12.5571 16.2854C12.6086 16.3235 12.6488 16.3777 12.6725 16.4411C12.6962 16.5045 12.7024 16.5742 12.6903 16.6415C12.6782 16.7088 12.6484 16.7707 12.6046 16.8192C12.5608 16.8677 12.505 16.9007 12.4442 16.9141C12.3835 16.9275 12.3205 16.9207 12.2633 16.8944C12.206 16.8681 12.1571 16.8237 12.1227 16.7666C12.0883 16.7095 12.0699 16.6425 12.0699 16.5738C12.0699 16.4818 12.1029 16.3936 12.1617 16.3285C12.2204 16.2634 12.3001 16.2269 12.3831 16.2269ZM3.9571 5.39973H0.615681V5.99452C0.616618 6.43802 0.775705 6.86315 1.05829 7.17731C1.34088 7.49147 1.72408 7.66921 2.12442 7.67183C2.53964 7.67183 3.24121 7.48348 3.51504 7.17815C3.65584 7.02191 3.76738 6.83639 3.84325 6.63224C3.91911 6.42809 3.9578 6.20934 3.9571 5.98857V5.39378V5.39973ZM0.769598 4.80494H4.05196L4.58887 1.44835H2.08326L0.769598 4.80098V4.80494ZM13.321 1.44438L13.5482 4.80098H17.219L16.5997 1.44438H13.321ZM12.8306 4.80098L12.6051 1.44438H9.38355L9.15984 4.80098H12.8306ZM8.44215 4.80098L8.66408 1.44438H5.30834L4.77143 4.80098H8.44215ZM17.3138 1.44438L17.9313 4.80098H21.2047L19.789 1.44438H17.3138ZM18.0297 5.40964V6.00443C18.029 6.2252 18.0677 6.44395 18.1436 6.6481C18.2194 6.85225 18.331 7.03778 18.4718 7.19401C18.7456 7.49934 19.4472 7.68769 19.8624 7.68769C20.2627 7.68507 20.6459 7.50733 20.9285 7.19317C21.2111 6.87901 21.3702 6.45388 21.3711 6.01038V5.41559L18.0297 5.40964ZM13.6019 5.39973V5.99452C13.6012 6.21548 13.64 6.4344 13.7162 6.63861C13.7924 6.84281 13.9044 7.02822 14.0458 7.1841C14.3196 7.48942 15.0194 7.67778 15.4346 7.67778C15.8498 7.67778 16.5496 7.48942 16.8234 7.1841C16.9648 7.02822 17.0768 6.84281 17.153 6.63861C17.2292 6.4344 17.2681 6.21548 17.2673 5.99452V5.39973H13.6019ZM9.15984 5.39973V5.99452C9.15907 6.21548 9.19791 6.4344 9.2741 6.63861C9.35029 6.84281 9.46232 7.02822 9.60369 7.1841C9.87752 7.48942 10.5773 7.67778 10.9925 7.67778C11.4077 7.67778 12.1075 7.48942 12.3813 7.1841C12.5227 7.02822 12.6347 6.84281 12.7109 6.63861C12.7871 6.4344 12.826 6.21548 12.8252 5.99452V5.39973H9.15984ZM4.71773 5.39973V5.99452C4.71697 6.21548 4.75581 6.4344 4.832 6.63861C4.90819 6.84281 5.02022 7.02822 5.16159 7.1841C5.43541 7.48942 6.1352 7.67778 6.55041 7.67778C6.96563 7.67778 7.66541 7.48942 7.93924 7.1841C8.08061 7.02822 8.19264 6.84281 8.26883 6.63861C8.34502 6.4344 8.38386 6.21548 8.38309 5.99452V5.39973H4.71773ZM18.9836 8.13378C18.7599 8.01879 18.2087 7.86018 18.0351 7.66786C17.8836 7.49959 17.7557 7.30712 17.6557 7.09686C17.5556 7.30712 17.4278 7.49959 17.2762 7.66786C16.8932 8.09214 16.0234 8.35385 15.4346 8.35385C14.8458 8.35385 13.9796 8.09214 13.6019 7.66786C13.4504 7.49959 13.3225 7.30712 13.2225 7.09686C13.1225 7.30712 12.9946 7.49959 12.8431 7.66786C12.4601 8.09214 11.5903 8.35385 11.0015 8.35385C10.4126 8.35385 9.54284 8.09214 9.15984 7.66786C9.00452 7.50043 8.87298 7.30791 8.76968 7.09686C8.66966 7.30712 8.54176 7.49959 8.39025 7.66786C8.00725 8.09214 7.13744 8.35385 6.54862 8.35385C5.9598 8.35385 5.09 8.09214 4.707 7.66786C4.55549 7.49959 4.42759 7.30712 4.32757 7.09686C4.22755 7.30712 4.09966 7.49959 3.94815 7.66786C3.6958 7.94741 3.03181 8.15559 2.68103 8.26265C2.60466 8.27323 2.52592 8.28116 2.44478 8.28644V19.8769C2.44497 19.9357 2.46621 19.9921 2.50384 20.0335C2.54221 20.0764 2.59434 20.1006 2.64881 20.1009H10.7026V12.0971C10.7035 11.5852 10.8875 11.0947 11.2142 10.7327C11.5409 10.3708 11.9837 10.167 12.4458 10.166H15.3272C15.789 10.1675 16.2313 10.3716 16.5577 10.7334C16.884 11.0953 17.0677 11.5856 17.0686 12.0971V20.1029H19.338C19.3647 20.1027 19.3911 20.0967 19.4157 20.0851C19.4403 20.0735 19.4625 20.0567 19.4812 20.0355C19.518 19.9936 19.5386 19.9374 19.5385 19.8789V8.3023C19.5385 8.2805 19.5385 8.25869 19.5385 8.23886C19.3511 8.21705 19.1652 8.18195 18.9819 8.13378H18.9836ZM11.5133 20.1029H16.2597V12.0971C16.2587 11.8229 16.16 11.5603 15.985 11.3664C15.81 11.1725 15.5729 11.0632 15.3254 11.0621H12.4476C12.2001 11.0632 11.963 11.1725 11.788 11.3664C11.613 11.5603 11.5143 11.8229 11.5133 12.0971V20.1029ZM5.36919 11.6411H8.25065C8.35809 11.6411 8.46116 11.6882 8.5373 11.7722C8.61344 11.8561 8.65645 11.9701 8.65692 12.0891V16.8336C8.65692 16.9529 8.61412 17.0674 8.53793 17.1518C8.46174 17.2362 8.3584 17.2836 8.25065 17.2836H5.36919C5.26145 17.2836 5.15811 17.2362 5.08192 17.1518C5.00573 17.0674 4.96293 16.9529 4.96293 16.8336V12.0891C4.9634 11.9701 5.00641 11.8561 5.08255 11.7722C5.15869 11.6882 5.26176 11.6411 5.36919 11.6411ZM7.84618 12.5392H5.77188V16.3855H7.84618V12.5392ZM1.49802 8.20714C1.16791 8.12163 0.864867 7.9387 0.62105 7.67778C0.42327 7.45987 0.266527 7.20062 0.159918 6.91507C0.0533086 6.62952 -0.0010438 6.32335 1.51815e-05 6.01435V5.09441C0.00034217 5.04806 0.0107805 5.00248 0.0304405 4.96157L1.69131 1.0082C1.71189 0.966659 1.7422 0.932029 1.77905 0.907955C1.8159 0.883882 1.85793 0.871254 1.9007 0.8714H19.959C20.0043 0.871558 20.0485 0.885762 20.0868 0.912399C20.1251 0.939036 20.1558 0.977036 20.1756 1.02208L21.9653 4.95364C21.9858 4.99153 21.9975 5.03444 21.9993 5.07854C22.0002 5.08711 22.0002 5.09576 21.9993 5.10432V6.01236C21.9992 6.3197 21.9443 6.62399 21.8377 6.90775C21.7311 7.19151 21.575 7.44915 21.3783 7.66588C21.1361 7.9291 20.8313 8.11063 20.4995 8.18929C20.5067 8.22576 20.5103 8.26299 20.5103 8.30032V19.8769C20.5089 20.2181 20.3853 20.5447 20.1667 20.785C20.0587 20.905 19.9304 21.0003 19.7891 21.0653C19.6478 21.1303 19.4964 21.1637 19.3434 21.1636H2.65418C2.5015 21.1634 2.35037 21.1299 2.20941 21.0649C2.06845 20.9999 1.94044 20.9048 1.8327 20.785C1.7245 20.666 1.6386 20.5246 1.57993 20.3687C1.52126 20.2129 1.49099 20.0458 1.49086 19.8769V8.3023C1.48812 8.26734 1.48812 8.23219 1.49086 8.19722L1.49802 8.20714Z" fill="black"/>
</svg>
